<mxfile host="app.diagrams.net" agent="Mozilla/5.0 (Windows NT 10.0; Win64; x64) AppleWebKit/537.36 (KHTML, like Gecko) Chrome/139.0.0.0 Safari/537.36 Edg/139.0.0.0" version="28.1.0">
  <diagram name="Page-1" id="nvWqbo-7Itg1XzaZS1Jg">
    <mxGraphModel dx="1564" dy="425" grid="1" gridSize="10" guides="1" tooltips="1" connect="1" arrows="1" fold="1" page="1" pageScale="1" pageWidth="850" pageHeight="1100" math="0" shadow="0">
      <root>
        <mxCell id="0" />
        <mxCell id="1" parent="0" />
        <mxCell id="vaLfbAcXwKJw9pECnjdl-85" style="edgeStyle=orthogonalEdgeStyle;rounded=0;orthogonalLoop=1;jettySize=auto;html=1;exitX=0;exitY=0;exitDx=0;exitDy=0;entryX=0;entryY=1;entryDx=0;entryDy=0;" edge="1" parent="1" source="vaLfbAcXwKJw9pECnjdl-82" target="vaLfbAcXwKJw9pECnjdl-30">
          <mxGeometry relative="1" as="geometry" />
        </mxCell>
        <mxCell id="vaLfbAcXwKJw9pECnjdl-82" value="" style="ellipse;whiteSpace=wrap;html=1;" vertex="1" parent="1">
          <mxGeometry x="372" y="630" width="120" height="40" as="geometry" />
        </mxCell>
        <mxCell id="vaLfbAcXwKJw9pECnjdl-24" style="edgeStyle=orthogonalEdgeStyle;rounded=0;orthogonalLoop=1;jettySize=auto;html=1;exitX=0;exitY=0;exitDx=0;exitDy=0;" edge="1" parent="1" source="vaLfbAcXwKJw9pECnjdl-1">
          <mxGeometry relative="1" as="geometry">
            <mxPoint x="60" y="470" as="targetPoint" />
          </mxGeometry>
        </mxCell>
        <mxCell id="vaLfbAcXwKJw9pECnjdl-67" value="1" style="edgeLabel;html=1;align=center;verticalAlign=middle;resizable=0;points=[];" vertex="1" connectable="0" parent="vaLfbAcXwKJw9pECnjdl-24">
          <mxGeometry x="0.2447" y="3" relative="1" as="geometry">
            <mxPoint x="-3" y="-3" as="offset" />
          </mxGeometry>
        </mxCell>
        <mxCell id="vaLfbAcXwKJw9pECnjdl-1" value="User Profile" style="rounded=0;whiteSpace=wrap;html=1;shadow=0;" vertex="1" parent="1">
          <mxGeometry x="240" y="220" width="190" height="40" as="geometry" />
        </mxCell>
        <mxCell id="vaLfbAcXwKJw9pECnjdl-17" style="edgeStyle=orthogonalEdgeStyle;rounded=0;orthogonalLoop=1;jettySize=auto;html=1;entryX=0;entryY=1;entryDx=0;entryDy=0;" edge="1" parent="1" source="vaLfbAcXwKJw9pECnjdl-3" target="vaLfbAcXwKJw9pECnjdl-18">
          <mxGeometry relative="1" as="geometry">
            <mxPoint x="330" y="180" as="targetPoint" />
            <Array as="points">
              <mxPoint x="325" y="150" />
              <mxPoint x="325" y="180" />
              <mxPoint x="365" y="180" />
            </Array>
          </mxGeometry>
        </mxCell>
        <mxCell id="vaLfbAcXwKJw9pECnjdl-54" value="1" style="edgeLabel;html=1;align=center;verticalAlign=middle;resizable=0;points=[];" vertex="1" connectable="0" parent="vaLfbAcXwKJw9pECnjdl-17">
          <mxGeometry x="0.4573" y="-1" relative="1" as="geometry">
            <mxPoint as="offset" />
          </mxGeometry>
        </mxCell>
        <mxCell id="vaLfbAcXwKJw9pECnjdl-3" value="Sign In&amp;nbsp;" style="rounded=0;whiteSpace=wrap;html=1;" vertex="1" parent="1">
          <mxGeometry x="130" y="130" width="175" height="40" as="geometry" />
        </mxCell>
        <mxCell id="vaLfbAcXwKJw9pECnjdl-6" value="" style="edgeStyle=orthogonalEdgeStyle;rounded=0;orthogonalLoop=1;jettySize=auto;html=1;" edge="1" parent="1" source="vaLfbAcXwKJw9pECnjdl-1">
          <mxGeometry relative="1" as="geometry">
            <mxPoint x="280" y="365" as="sourcePoint" />
            <mxPoint x="140" y="290" as="targetPoint" />
          </mxGeometry>
        </mxCell>
        <mxCell id="vaLfbAcXwKJw9pECnjdl-68" value="N" style="edgeLabel;html=1;align=center;verticalAlign=middle;resizable=0;points=[];" vertex="1" connectable="0" parent="vaLfbAcXwKJw9pECnjdl-6">
          <mxGeometry x="-0.1955" relative="1" as="geometry">
            <mxPoint as="offset" />
          </mxGeometry>
        </mxCell>
        <mxCell id="vaLfbAcXwKJw9pECnjdl-10" style="edgeStyle=orthogonalEdgeStyle;rounded=0;orthogonalLoop=1;jettySize=auto;html=1;exitX=0.5;exitY=1;exitDx=0;exitDy=0;entryX=0.5;entryY=0;entryDx=0;entryDy=0;" edge="1" parent="1" source="vaLfbAcXwKJw9pECnjdl-5" target="vaLfbAcXwKJw9pECnjdl-9">
          <mxGeometry relative="1" as="geometry">
            <Array as="points">
              <mxPoint x="338" y="430" />
              <mxPoint x="338" y="430" />
            </Array>
          </mxGeometry>
        </mxCell>
        <mxCell id="vaLfbAcXwKJw9pECnjdl-29" style="edgeStyle=orthogonalEdgeStyle;rounded=0;orthogonalLoop=1;jettySize=auto;html=1;exitX=0.75;exitY=1;exitDx=0;exitDy=0;" edge="1" parent="1">
          <mxGeometry relative="1" as="geometry">
            <mxPoint x="510" y="580" as="targetPoint" />
            <mxPoint x="357.5" y="490" as="sourcePoint" />
            <Array as="points">
              <mxPoint x="358" y="535" />
              <mxPoint x="510" y="535" />
            </Array>
          </mxGeometry>
        </mxCell>
        <mxCell id="vaLfbAcXwKJw9pECnjdl-5" value="Recipe" style="whiteSpace=wrap;html=1;" vertex="1" parent="1">
          <mxGeometry x="267.5" y="420" width="120" height="40" as="geometry" />
        </mxCell>
        <mxCell id="vaLfbAcXwKJw9pECnjdl-40" style="edgeStyle=orthogonalEdgeStyle;rounded=0;orthogonalLoop=1;jettySize=auto;html=1;exitX=1;exitY=0.5;exitDx=0;exitDy=0;entryX=0;entryY=0.5;entryDx=0;entryDy=0;" edge="1" parent="1" source="vaLfbAcXwKJw9pECnjdl-7" target="vaLfbAcXwKJw9pECnjdl-5">
          <mxGeometry relative="1" as="geometry" />
        </mxCell>
        <mxCell id="vaLfbAcXwKJw9pECnjdl-45" value="M" style="edgeLabel;html=1;align=center;verticalAlign=middle;resizable=0;points=[];" vertex="1" connectable="0" parent="vaLfbAcXwKJw9pECnjdl-40">
          <mxGeometry x="-0.4349" y="-1" relative="1" as="geometry">
            <mxPoint as="offset" />
          </mxGeometry>
        </mxCell>
        <mxCell id="vaLfbAcXwKJw9pECnjdl-7" value="searches for&amp;nbsp;" style="rhombus;whiteSpace=wrap;html=1;" vertex="1" parent="1">
          <mxGeometry x="90" y="290" width="100" height="100" as="geometry" />
        </mxCell>
        <mxCell id="vaLfbAcXwKJw9pECnjdl-9" value="Ingredients" style="rounded=0;whiteSpace=wrap;html=1;" vertex="1" parent="1">
          <mxGeometry x="300" y="560" width="100" height="40" as="geometry" />
        </mxCell>
        <mxCell id="vaLfbAcXwKJw9pECnjdl-12" style="edgeStyle=orthogonalEdgeStyle;rounded=0;orthogonalLoop=1;jettySize=auto;html=1;entryX=1;entryY=0.75;entryDx=0;entryDy=0;" edge="1" parent="1" target="vaLfbAcXwKJw9pECnjdl-5">
          <mxGeometry relative="1" as="geometry">
            <mxPoint x="397.5000000000001" y="400.00000000000006" as="targetPoint" />
            <mxPoint x="465.12" y="436.92" as="sourcePoint" />
            <Array as="points">
              <mxPoint x="465" y="470" />
              <mxPoint x="400" y="470" />
              <mxPoint x="400" y="430" />
            </Array>
          </mxGeometry>
        </mxCell>
        <mxCell id="vaLfbAcXwKJw9pECnjdl-59" value="M" style="edgeLabel;html=1;align=center;verticalAlign=middle;resizable=0;points=[];" vertex="1" connectable="0" parent="vaLfbAcXwKJw9pECnjdl-12">
          <mxGeometry x="-0.2346" y="5" relative="1" as="geometry">
            <mxPoint as="offset" />
          </mxGeometry>
        </mxCell>
        <mxCell id="vaLfbAcXwKJw9pECnjdl-11" value="FOOD Restrictions&amp;nbsp;" style="whiteSpace=wrap;html=1;" vertex="1" parent="1">
          <mxGeometry x="540" y="340" width="130" height="50" as="geometry" />
        </mxCell>
        <mxCell id="vaLfbAcXwKJw9pECnjdl-15" style="edgeStyle=orthogonalEdgeStyle;rounded=0;orthogonalLoop=1;jettySize=auto;html=1;exitX=1;exitY=0.5;exitDx=0;exitDy=0;entryX=0.669;entryY=1.086;entryDx=0;entryDy=0;entryPerimeter=0;" edge="1" parent="1" source="vaLfbAcXwKJw9pECnjdl-14" target="vaLfbAcXwKJw9pECnjdl-11">
          <mxGeometry relative="1" as="geometry">
            <Array as="points">
              <mxPoint x="620" y="430" />
              <mxPoint x="620" y="390" />
              <mxPoint x="627" y="390" />
            </Array>
          </mxGeometry>
        </mxCell>
        <mxCell id="vaLfbAcXwKJw9pECnjdl-57" value="N" style="edgeLabel;html=1;align=center;verticalAlign=middle;resizable=0;points=[];" vertex="1" connectable="0" parent="vaLfbAcXwKJw9pECnjdl-15">
          <mxGeometry x="-0.2376" y="-2" relative="1" as="geometry">
            <mxPoint as="offset" />
          </mxGeometry>
        </mxCell>
        <mxCell id="vaLfbAcXwKJw9pECnjdl-16" style="edgeStyle=orthogonalEdgeStyle;rounded=0;orthogonalLoop=1;jettySize=auto;html=1;entryX=1;entryY=0.5;entryDx=0;entryDy=0;exitX=0.5;exitY=0;exitDx=0;exitDy=0;" edge="1" parent="1" source="vaLfbAcXwKJw9pECnjdl-14" target="vaLfbAcXwKJw9pECnjdl-1">
          <mxGeometry relative="1" as="geometry" />
        </mxCell>
        <mxCell id="vaLfbAcXwKJw9pECnjdl-56" value="1" style="edgeLabel;html=1;align=center;verticalAlign=middle;resizable=0;points=[];" vertex="1" connectable="0" parent="vaLfbAcXwKJw9pECnjdl-16">
          <mxGeometry x="-0.1784" y="2" relative="1" as="geometry">
            <mxPoint as="offset" />
          </mxGeometry>
        </mxCell>
        <mxCell id="vaLfbAcXwKJw9pECnjdl-14" value="Can have&amp;nbsp;" style="rhombus;whiteSpace=wrap;html=1;" vertex="1" parent="1">
          <mxGeometry x="450" y="390" width="80" height="80" as="geometry" />
        </mxCell>
        <mxCell id="vaLfbAcXwKJw9pECnjdl-19" style="edgeStyle=orthogonalEdgeStyle;rounded=0;orthogonalLoop=1;jettySize=auto;html=1;entryX=0.895;entryY=0;entryDx=0;entryDy=0;entryPerimeter=0;" edge="1" parent="1" source="vaLfbAcXwKJw9pECnjdl-18" target="vaLfbAcXwKJw9pECnjdl-1">
          <mxGeometry relative="1" as="geometry">
            <mxPoint x="450" y="220" as="targetPoint" />
          </mxGeometry>
        </mxCell>
        <mxCell id="vaLfbAcXwKJw9pECnjdl-55" value="1" style="edgeLabel;html=1;align=center;verticalAlign=middle;resizable=0;points=[];" vertex="1" connectable="0" parent="vaLfbAcXwKJw9pECnjdl-19">
          <mxGeometry x="-0.5743" y="1" relative="1" as="geometry">
            <mxPoint as="offset" />
          </mxGeometry>
        </mxCell>
        <mxCell id="vaLfbAcXwKJw9pECnjdl-18" value="Creates" style="rhombus;whiteSpace=wrap;html=1;" vertex="1" parent="1">
          <mxGeometry x="345" y="110" width="80" height="80" as="geometry" />
        </mxCell>
        <mxCell id="vaLfbAcXwKJw9pECnjdl-26" style="edgeStyle=orthogonalEdgeStyle;rounded=0;orthogonalLoop=1;jettySize=auto;html=1;entryX=0.5;entryY=0;entryDx=0;entryDy=0;" edge="1" parent="1" source="vaLfbAcXwKJw9pECnjdl-25" target="vaLfbAcXwKJw9pECnjdl-27">
          <mxGeometry relative="1" as="geometry">
            <mxPoint x="170" y="550" as="targetPoint" />
          </mxGeometry>
        </mxCell>
        <mxCell id="vaLfbAcXwKJw9pECnjdl-41" value="N" style="edgeLabel;html=1;align=center;verticalAlign=middle;resizable=0;points=[];" vertex="1" connectable="0" parent="vaLfbAcXwKJw9pECnjdl-26">
          <mxGeometry x="-0.339" y="-2" relative="1" as="geometry">
            <mxPoint as="offset" />
          </mxGeometry>
        </mxCell>
        <mxCell id="vaLfbAcXwKJw9pECnjdl-25" value="Gives&amp;nbsp;" style="rhombus;whiteSpace=wrap;html=1;" vertex="1" parent="1">
          <mxGeometry x="60" y="430" width="80" height="80" as="geometry" />
        </mxCell>
        <mxCell id="vaLfbAcXwKJw9pECnjdl-27" value="Reviews" style="rounded=0;whiteSpace=wrap;html=1;" vertex="1" parent="1">
          <mxGeometry x="10" y="550" width="120" height="40" as="geometry" />
        </mxCell>
        <mxCell id="vaLfbAcXwKJw9pECnjdl-28" style="edgeStyle=orthogonalEdgeStyle;rounded=0;orthogonalLoop=1;jettySize=auto;html=1;exitX=0.5;exitY=0;exitDx=0;exitDy=0;entryX=0.082;entryY=1.046;entryDx=0;entryDy=0;entryPerimeter=0;" edge="1" parent="1" source="vaLfbAcXwKJw9pECnjdl-25" target="vaLfbAcXwKJw9pECnjdl-5">
          <mxGeometry relative="1" as="geometry">
            <Array as="points">
              <mxPoint x="100" y="410" />
              <mxPoint x="204" y="410" />
              <mxPoint x="204" y="460" />
              <mxPoint x="260" y="460" />
              <mxPoint x="260" y="462" />
            </Array>
          </mxGeometry>
        </mxCell>
        <mxCell id="vaLfbAcXwKJw9pECnjdl-66" value="M" style="edgeLabel;html=1;align=center;verticalAlign=middle;resizable=0;points=[];" vertex="1" connectable="0" parent="vaLfbAcXwKJw9pECnjdl-28">
          <mxGeometry x="-0.3428" y="-2" relative="1" as="geometry">
            <mxPoint as="offset" />
          </mxGeometry>
        </mxCell>
        <mxCell id="vaLfbAcXwKJw9pECnjdl-30" value="categories" style="whiteSpace=wrap;html=1;" vertex="1" parent="1">
          <mxGeometry x="452" y="550" width="120" height="40" as="geometry" />
        </mxCell>
        <mxCell id="vaLfbAcXwKJw9pECnjdl-35" style="edgeStyle=orthogonalEdgeStyle;rounded=0;orthogonalLoop=1;jettySize=auto;html=1;entryX=0.5;entryY=0;entryDx=0;entryDy=0;" edge="1" parent="1" source="vaLfbAcXwKJw9pECnjdl-33" target="vaLfbAcXwKJw9pECnjdl-34">
          <mxGeometry relative="1" as="geometry" />
        </mxCell>
        <mxCell id="vaLfbAcXwKJw9pECnjdl-47" value="O" style="edgeLabel;html=1;align=center;verticalAlign=middle;resizable=0;points=[];" vertex="1" connectable="0" parent="vaLfbAcXwKJw9pECnjdl-35">
          <mxGeometry x="0.2685" y="4" relative="1" as="geometry">
            <mxPoint as="offset" />
          </mxGeometry>
        </mxCell>
        <mxCell id="vaLfbAcXwKJw9pECnjdl-36" style="edgeStyle=orthogonalEdgeStyle;rounded=0;orthogonalLoop=1;jettySize=auto;html=1;entryX=0.5;entryY=0;entryDx=0;entryDy=0;" edge="1" parent="1" source="vaLfbAcXwKJw9pECnjdl-33" target="vaLfbAcXwKJw9pECnjdl-5">
          <mxGeometry relative="1" as="geometry" />
        </mxCell>
        <mxCell id="vaLfbAcXwKJw9pECnjdl-71" value="M" style="edgeLabel;html=1;align=center;verticalAlign=middle;resizable=0;points=[];" vertex="1" connectable="0" parent="vaLfbAcXwKJw9pECnjdl-36">
          <mxGeometry x="0.1869" relative="1" as="geometry">
            <mxPoint as="offset" />
          </mxGeometry>
        </mxCell>
        <mxCell id="vaLfbAcXwKJw9pECnjdl-33" value="Can Save" style="rhombus;whiteSpace=wrap;html=1;" vertex="1" parent="1">
          <mxGeometry x="250" y="310" width="80" height="50" as="geometry" />
        </mxCell>
        <mxCell id="vaLfbAcXwKJw9pECnjdl-34" value="Bookmarks" style="whiteSpace=wrap;html=1;" vertex="1" parent="1">
          <mxGeometry x="372" y="350" width="80" height="30" as="geometry" />
        </mxCell>
        <mxCell id="vaLfbAcXwKJw9pECnjdl-37" style="edgeStyle=orthogonalEdgeStyle;rounded=0;orthogonalLoop=1;jettySize=auto;html=1;entryX=0.081;entryY=1.039;entryDx=0;entryDy=0;entryPerimeter=0;" edge="1" parent="1" source="vaLfbAcXwKJw9pECnjdl-33" target="vaLfbAcXwKJw9pECnjdl-1">
          <mxGeometry relative="1" as="geometry" />
        </mxCell>
        <mxCell id="vaLfbAcXwKJw9pECnjdl-46" value="N" style="edgeLabel;html=1;align=center;verticalAlign=middle;resizable=0;points=[];" vertex="1" connectable="0" parent="vaLfbAcXwKJw9pECnjdl-37">
          <mxGeometry x="-0.0092" relative="1" as="geometry">
            <mxPoint as="offset" />
          </mxGeometry>
        </mxCell>
        <mxCell id="vaLfbAcXwKJw9pECnjdl-38" style="edgeStyle=orthogonalEdgeStyle;rounded=0;orthogonalLoop=1;jettySize=auto;html=1;exitX=0.5;exitY=1;exitDx=0;exitDy=0;" edge="1" parent="1" source="vaLfbAcXwKJw9pECnjdl-7" target="vaLfbAcXwKJw9pECnjdl-7">
          <mxGeometry relative="1" as="geometry" />
        </mxCell>
        <mxCell id="vaLfbAcXwKJw9pECnjdl-51" value="d" style="ellipse;whiteSpace=wrap;html=1;aspect=fixed;" vertex="1" parent="1">
          <mxGeometry x="330" y="480" width="40" height="40" as="geometry" />
        </mxCell>
        <mxCell id="vaLfbAcXwKJw9pECnjdl-72" value="By Country" style="ellipse;whiteSpace=wrap;html=1;direction=west;" vertex="1" parent="1">
          <mxGeometry x="388.25" y="635" width="87.5" height="30" as="geometry" />
        </mxCell>
        <mxCell id="vaLfbAcXwKJw9pECnjdl-90" style="edgeStyle=orthogonalEdgeStyle;rounded=0;orthogonalLoop=1;jettySize=auto;html=1;exitX=0;exitY=0;exitDx=0;exitDy=0;entryX=0;entryY=0.75;entryDx=0;entryDy=0;" edge="1" parent="1" source="vaLfbAcXwKJw9pECnjdl-73" target="vaLfbAcXwKJw9pECnjdl-27">
          <mxGeometry relative="1" as="geometry" />
        </mxCell>
        <mxCell id="vaLfbAcXwKJw9pECnjdl-73" value="percentage&lt;div&gt;(out of 10)&lt;/div&gt;" style="ellipse;whiteSpace=wrap;html=1;" vertex="1" parent="1">
          <mxGeometry x="-10" y="610" width="87.5" height="40" as="geometry" />
        </mxCell>
        <mxCell id="vaLfbAcXwKJw9pECnjdl-87" style="edgeStyle=orthogonalEdgeStyle;rounded=0;orthogonalLoop=1;jettySize=auto;html=1;entryX=0;entryY=0.25;entryDx=0;entryDy=0;" edge="1" parent="1" source="vaLfbAcXwKJw9pECnjdl-76" target="vaLfbAcXwKJw9pECnjdl-27">
          <mxGeometry relative="1" as="geometry" />
        </mxCell>
        <mxCell id="vaLfbAcXwKJw9pECnjdl-76" value="Feedback" style="rounded=1;whiteSpace=wrap;html=1;arcSize=50;" vertex="1" parent="1">
          <mxGeometry x="-30" y="490" width="70" height="40" as="geometry" />
        </mxCell>
        <mxCell id="vaLfbAcXwKJw9pECnjdl-106" style="edgeStyle=orthogonalEdgeStyle;rounded=0;orthogonalLoop=1;jettySize=auto;html=1;entryX=0;entryY=0.5;entryDx=0;entryDy=0;" edge="1" parent="1" source="vaLfbAcXwKJw9pECnjdl-77" target="vaLfbAcXwKJw9pECnjdl-3">
          <mxGeometry relative="1" as="geometry" />
        </mxCell>
        <mxCell id="vaLfbAcXwKJw9pECnjdl-77" value="Username" style="rounded=1;whiteSpace=wrap;html=1;arcSize=50;" vertex="1" parent="1">
          <mxGeometry x="50" y="90" width="80" height="30" as="geometry" />
        </mxCell>
        <mxCell id="vaLfbAcXwKJw9pECnjdl-105" style="edgeStyle=orthogonalEdgeStyle;rounded=0;orthogonalLoop=1;jettySize=auto;html=1;entryX=0.5;entryY=0;entryDx=0;entryDy=0;" edge="1" parent="1" source="vaLfbAcXwKJw9pECnjdl-78" target="vaLfbAcXwKJw9pECnjdl-3">
          <mxGeometry relative="1" as="geometry" />
        </mxCell>
        <mxCell id="vaLfbAcXwKJw9pECnjdl-78" value="&lt;u&gt;Email&lt;/u&gt;" style="rounded=1;whiteSpace=wrap;html=1;arcSize=50;" vertex="1" parent="1">
          <mxGeometry x="150" y="80" width="80" height="30" as="geometry" />
        </mxCell>
        <mxCell id="vaLfbAcXwKJw9pECnjdl-91" style="edgeStyle=orthogonalEdgeStyle;rounded=0;orthogonalLoop=1;jettySize=auto;html=1;exitX=0.25;exitY=0;exitDx=0;exitDy=0;entryX=1;entryY=1;entryDx=0;entryDy=0;" edge="1" parent="1" source="vaLfbAcXwKJw9pECnjdl-79" target="vaLfbAcXwKJw9pECnjdl-27">
          <mxGeometry relative="1" as="geometry" />
        </mxCell>
        <mxCell id="vaLfbAcXwKJw9pECnjdl-79" value="Rating" style="rounded=1;whiteSpace=wrap;html=1;arcSize=50;" vertex="1" parent="1">
          <mxGeometry x="100" y="610" width="60" height="30" as="geometry" />
        </mxCell>
        <mxCell id="vaLfbAcXwKJw9pECnjdl-83" value="By Allargens" style="rounded=1;whiteSpace=wrap;html=1;arcSize=50;" vertex="1" parent="1">
          <mxGeometry x="550" y="630" width="80" height="30" as="geometry" />
        </mxCell>
        <mxCell id="vaLfbAcXwKJw9pECnjdl-84" style="edgeStyle=orthogonalEdgeStyle;rounded=0;orthogonalLoop=1;jettySize=auto;html=1;entryX=0.827;entryY=1.06;entryDx=0;entryDy=0;entryPerimeter=0;" edge="1" parent="1" source="vaLfbAcXwKJw9pECnjdl-83" target="vaLfbAcXwKJw9pECnjdl-30">
          <mxGeometry relative="1" as="geometry" />
        </mxCell>
        <mxCell id="vaLfbAcXwKJw9pECnjdl-92" value="&lt;u&gt;Recipe Id&lt;/u&gt;" style="ellipse;whiteSpace=wrap;html=1;shadow=1;" vertex="1" parent="1">
          <mxGeometry x="225" y="480" width="80" height="30" as="geometry" />
        </mxCell>
        <mxCell id="vaLfbAcXwKJw9pECnjdl-116" style="edgeStyle=orthogonalEdgeStyle;rounded=0;orthogonalLoop=1;jettySize=auto;html=1;exitX=1;exitY=1;exitDx=0;exitDy=0;entryX=1;entryY=0.25;entryDx=0;entryDy=0;" edge="1" parent="1" source="vaLfbAcXwKJw9pECnjdl-93" target="vaLfbAcXwKJw9pECnjdl-34">
          <mxGeometry relative="1" as="geometry" />
        </mxCell>
        <mxCell id="vaLfbAcXwKJw9pECnjdl-93" value="&lt;u&gt;Bookmarks no.&lt;/u&gt;" style="ellipse;whiteSpace=wrap;html=1;" vertex="1" parent="1">
          <mxGeometry x="400" y="290" width="80" height="30" as="geometry" />
        </mxCell>
        <mxCell id="vaLfbAcXwKJw9pECnjdl-101" style="edgeStyle=orthogonalEdgeStyle;rounded=0;orthogonalLoop=1;jettySize=auto;html=1;exitX=0.5;exitY=1;exitDx=0;exitDy=0;entryX=0.25;entryY=0;entryDx=0;entryDy=0;" edge="1" parent="1" source="vaLfbAcXwKJw9pECnjdl-94" target="vaLfbAcXwKJw9pECnjdl-1">
          <mxGeometry relative="1" as="geometry" />
        </mxCell>
        <mxCell id="vaLfbAcXwKJw9pECnjdl-94" value="&lt;u&gt;Username&lt;/u&gt;" style="ellipse;whiteSpace=wrap;html=1;" vertex="1" parent="1">
          <mxGeometry x="250" y="180" width="80" height="30" as="geometry" />
        </mxCell>
        <mxCell id="vaLfbAcXwKJw9pECnjdl-96" value="Dairy" style="ellipse;whiteSpace=wrap;html=1;" vertex="1" parent="1">
          <mxGeometry x="540" y="290" width="70" height="30" as="geometry" />
        </mxCell>
        <mxCell id="vaLfbAcXwKJw9pECnjdl-99" style="edgeStyle=orthogonalEdgeStyle;rounded=0;orthogonalLoop=1;jettySize=auto;html=1;entryX=1;entryY=0.25;entryDx=0;entryDy=0;" edge="1" parent="1" source="vaLfbAcXwKJw9pECnjdl-97" target="vaLfbAcXwKJw9pECnjdl-1">
          <mxGeometry relative="1" as="geometry" />
        </mxCell>
        <mxCell id="vaLfbAcXwKJw9pECnjdl-97" value="Cooking History" style="ellipse;whiteSpace=wrap;html=1;" vertex="1" parent="1">
          <mxGeometry x="492" y="200" width="88" height="40" as="geometry" />
        </mxCell>
        <mxCell id="vaLfbAcXwKJw9pECnjdl-107" style="edgeStyle=orthogonalEdgeStyle;rounded=0;orthogonalLoop=1;jettySize=auto;html=1;entryX=0.614;entryY=-0.059;entryDx=0;entryDy=0;entryPerimeter=0;" edge="1" parent="1" source="vaLfbAcXwKJw9pECnjdl-96" target="vaLfbAcXwKJw9pECnjdl-11">
          <mxGeometry relative="1" as="geometry" />
        </mxCell>
        <mxCell id="vaLfbAcXwKJw9pECnjdl-108" style="edgeStyle=orthogonalEdgeStyle;rounded=0;orthogonalLoop=1;jettySize=auto;html=1;exitX=1;exitY=0;exitDx=0;exitDy=0;entryX=0.373;entryY=1.024;entryDx=0;entryDy=0;entryPerimeter=0;" edge="1" parent="1" source="vaLfbAcXwKJw9pECnjdl-92" target="vaLfbAcXwKJw9pECnjdl-5">
          <mxGeometry relative="1" as="geometry" />
        </mxCell>
        <mxCell id="vaLfbAcXwKJw9pECnjdl-115" style="edgeStyle=orthogonalEdgeStyle;rounded=0;orthogonalLoop=1;jettySize=auto;html=1;entryX=1;entryY=0.5;entryDx=0;entryDy=0;" edge="1" parent="1" source="vaLfbAcXwKJw9pECnjdl-109" target="vaLfbAcXwKJw9pECnjdl-27">
          <mxGeometry relative="1" as="geometry" />
        </mxCell>
        <mxCell id="vaLfbAcXwKJw9pECnjdl-109" value="&lt;u&gt;UserName&lt;/u&gt;" style="ellipse;whiteSpace=wrap;html=1;" vertex="1" parent="1">
          <mxGeometry x="130" y="520" width="70" height="30" as="geometry" />
        </mxCell>
        <mxCell id="vaLfbAcXwKJw9pECnjdl-110" value="Gluten" style="ellipse;whiteSpace=wrap;html=1;" vertex="1" parent="1">
          <mxGeometry x="620" y="300" width="80" height="30" as="geometry" />
        </mxCell>
        <mxCell id="vaLfbAcXwKJw9pECnjdl-114" style="edgeStyle=orthogonalEdgeStyle;rounded=0;orthogonalLoop=1;jettySize=auto;html=1;exitX=1;exitY=0;exitDx=0;exitDy=0;entryX=1;entryY=0.5;entryDx=0;entryDy=0;" edge="1" parent="1" source="vaLfbAcXwKJw9pECnjdl-111" target="vaLfbAcXwKJw9pECnjdl-11">
          <mxGeometry relative="1" as="geometry" />
        </mxCell>
        <mxCell id="vaLfbAcXwKJw9pECnjdl-111" value="Nuts" style="ellipse;whiteSpace=wrap;html=1;" vertex="1" parent="1">
          <mxGeometry x="630" y="400" width="80" height="30" as="geometry" />
        </mxCell>
        <mxCell id="vaLfbAcXwKJw9pECnjdl-113" style="edgeStyle=orthogonalEdgeStyle;rounded=0;orthogonalLoop=1;jettySize=auto;html=1;exitX=0;exitY=0;exitDx=0;exitDy=0;entryX=0.25;entryY=1;entryDx=0;entryDy=0;" edge="1" parent="1" source="vaLfbAcXwKJw9pECnjdl-112" target="vaLfbAcXwKJw9pECnjdl-11">
          <mxGeometry relative="1" as="geometry" />
        </mxCell>
        <mxCell id="vaLfbAcXwKJw9pECnjdl-112" value="Soya" style="ellipse;whiteSpace=wrap;html=1;" vertex="1" parent="1">
          <mxGeometry x="550" y="455" width="80" height="30" as="geometry" />
        </mxCell>
        <mxCell id="vaLfbAcXwKJw9pECnjdl-119" style="edgeStyle=orthogonalEdgeStyle;rounded=0;orthogonalLoop=1;jettySize=auto;html=1;exitX=0;exitY=1;exitDx=0;exitDy=0;entryX=0;entryY=0.5;entryDx=0;entryDy=0;" edge="1" parent="1" source="vaLfbAcXwKJw9pECnjdl-117" target="vaLfbAcXwKJw9pECnjdl-11">
          <mxGeometry relative="1" as="geometry" />
        </mxCell>
        <mxCell id="vaLfbAcXwKJw9pECnjdl-117" value="Veg/Non-Veg&lt;span style=&quot;white-space: pre;&quot;&gt;&lt;/span&gt;" style="ellipse;whiteSpace=wrap;html=1;" vertex="1" parent="1">
          <mxGeometry x="500" y="250" width="80" height="30" as="geometry" />
        </mxCell>
      </root>
    </mxGraphModel>
  </diagram>
</mxfile>
